<?xml version="1.0" encoding="UTF-8"?>
<svg version="1.1" xmlns="http://www.w3.org/2000/svg" width="401" height="401">
<path d="M0 0 C1.21018799 0.24943359 1.21018799 0.24943359 2.44482422 0.50390625 C55.65114455 11.7777587 100.43170416 43.93851993 130.30126953 88.96142578 C146.27072196 113.59315529 155.37901036 141.13086255 160 170 C160.1119873 170.69794678 160.22397461 171.39589355 160.33935547 172.11499023 C167.26999418 223.56355513 152.4214364 277.605736 121.0625 318.75 C116.49689263 324.59608477 111.58441741 330.11453438 106.45947266 335.47314453 C105.47491573 336.50315775 104.4955186 337.53812459 103.52099609 338.57763672 C68.15257753 376.21164793 17.25308103 396.56243932 -33.94921875 398.18359375 C-84.3682968 399.17210621 -132.84607992 381.95896853 -171 349 C-171.8355542 348.27828613 -171.8355542 348.27828613 -172.68798828 347.54199219 C-211.83121541 313.38889826 -235.97631541 263.89679537 -239.72265625 212.1171875 C-242.90328407 158.68670479 -226.73386714 105.50214663 -190.95849609 65.15771484 C-143.15941768 12.49650131 -70.7331151 -15.05022931 0 0 Z " fill="#DC0138" transform="translate(240,3)"/>
<path d="M0 0 C0.56283691 0.45600586 1.12567383 0.91201172 1.70556641 1.38183594 C23.5121701 19.09704173 42.37442912 41.76703322 53 68 C49.92595107 69.54015031 46.83950288 71.05362087 43.75 72.5625 C42.44095703 73.21895508 42.44095703 73.21895508 41.10546875 73.88867188 C40.26113281 74.29794922 39.41679687 74.70722656 38.546875 75.12890625 C37.77182617 75.51119385 36.99677734 75.89348145 36.19824219 76.28735352 C33.62065195 77.12298056 32.46970704 77.08782376 30 76 C28.45962932 73.61752005 27.15796299 71.32779032 25.875 68.8125 C18.80182874 55.64273236 9.90699418 44.15694205 0 33 C-0.58007812 32.34644531 -1.16015625 31.69289063 -1.7578125 31.01953125 C-7.49324823 24.95265074 -14.32395369 19.97595689 -21 15 C-21.56154785 14.5781543 -22.1230957 14.15630859 -22.70166016 13.72167969 C-40.22919818 0.75243469 -60.74352806 -8.34724143 -82 -13 C-82.75893555 -13.17354004 -83.51787109 -13.34708008 -84.29980469 -13.52587891 C-106.6313845 -18.41484105 -132.75320287 -18.19659215 -154.86865234 -12.54248047 C-156.85593892 -12.03666709 -158.859437 -11.59577457 -160.86328125 -11.16015625 C-200.60700131 -1.8965824 -235.56480155 25.81263305 -257 60 C-259.19683017 63.65931421 -261.29026418 67.36785423 -263.34375 71.109375 C-265 74 -265 74 -268 78 C-274.93 74.7 -281.86 71.4 -289 68 C-278.12654468 40.81636171 -257.91339436 16.87939105 -235 -1 C-234.17435547 -1.6482373 -234.17435547 -1.6482373 -233.33203125 -2.30957031 C-165.89977565 -54.85369308 -66.26554688 -54.69473319 0 0 Z " fill="#FEFCFC" transform="translate(319,53)"/>
<path d="M0 0 C1.43747752 2.52157516 2.73352762 5.0195322 4 7.625 C10.52807876 20.47613674 19.0187088 31.61623738 29 42 C29.69899414 42.74564209 29.69899414 42.74564209 30.41210938 43.50634766 C56.36743042 71.13214377 90.75820661 86.82242776 128 92 C129.89492188 92.2784375 129.89492188 92.2784375 131.828125 92.5625 C172.23685254 97.44973501 214.78526132 84.35642641 247 60 C247.89460938 59.32839844 248.78921875 58.65679687 249.7109375 57.96484375 C270.50963144 41.64915275 284.07145484 21.67556914 297 -1 C301.84286815 0.49359485 306.31350896 2.45033567 310.875 4.625 C311.56335938 4.94984375 312.25171875 5.2746875 312.9609375 5.609375 C314.64205219 6.40323472 316.32122921 7.20119558 318 8 C316.26820447 21.48701366 305.21792046 34.67595049 297 45 C296.55398438 45.56170898 296.10796875 46.12341797 295.6484375 46.70214844 C266.74777123 82.72235019 227.266162 106.08170609 182 115 C181.11965088 115.18022705 180.23930176 115.3604541 179.33227539 115.54614258 C169.78142909 117.27362812 160.30956661 117.33832744 150.63647461 117.31567383 C147.83472319 117.31252498 145.0340428 117.33601301 142.23242188 117.36132812 C126.77610987 117.41647423 112.11236804 115.51220817 97.1875 111.375 C95.82419556 110.99867432 95.82419556 110.99867432 94.43334961 110.61474609 C84.22660856 107.66685554 74.58339588 103.5529621 65 99 C64.30825684 98.67273926 63.61651367 98.34547852 62.90380859 98.00830078 C25.43166076 79.95090054 -5.01058839 47.15937836 -23 10 C-23 9.34 -23 8.68 -23 8 C-19.73638406 6.46331585 -16.46309912 4.94845148 -13.1875 3.4375 C-12.25873047 2.99986328 -11.32996094 2.56222656 -10.37304688 2.11132812 C-9.48037109 1.70205078 -8.58769531 1.29277344 -7.66796875 0.87109375 C-6.84578857 0.48880615 -6.0236084 0.10651855 -5.17651367 -0.28735352 C-3 -1 -3 -1 0 0 Z " fill="#FEFCFC" transform="translate(53,271)"/>
<path d="M0 0 C0 12.87 0 25.74 0 39 C0.99 38.505 0.99 38.505 2 38 C5.51456146 37.73080996 9.03879565 37.76831685 12.5625 37.75 C13.52736328 37.729375 14.49222656 37.70875 15.48632812 37.6875 C24.81063905 37.63713235 32.3079827 39.33418327 39.20703125 45.84765625 C48.4290841 56.91813799 47.85415456 72.36720336 47 86 C45.78025593 93.80828288 42.31787742 100.58732609 36.8125 106.25 C22.21323103 115.33398958 5.65870127 114.15269841 -10.546875 110.8515625 C-13.7424253 110.06351955 -16.8776134 109.04079553 -20 108 C-20 73.02 -20 38.04 -20 2 C-17.10208922 1.03402974 -14.71683324 0.7014668 -11.6875 0.4375 C-10.76324219 0.35371094 -9.83898437 0.26992187 -8.88671875 0.18359375 C-5.92982121 -0.00446333 -2.96287167 0 0 0 Z " fill="#FEFCFD" transform="translate(154,125)"/>
<path d="M0 0 C1.13824219 -0.02900391 2.27648437 -0.05800781 3.44921875 -0.08789062 C12.15848848 -0.15288518 19.2186656 1.15007166 26.25 6.5 C32.0369792 14.15923718 32.944053 21.13744388 32.765625 30.56640625 C32.75996521 31.70786606 32.75430542 32.84932587 32.74847412 34.02537537 C32.72622749 37.64235808 32.67605107 41.25832076 32.625 44.875 C32.60491995 47.33917832 32.58667183 49.80337229 32.5703125 52.26757812 C32.52640112 58.28289538 32.45960644 64.29762478 32.375 70.3125 C31.10880759 70.79983272 29.84139647 71.28399969 28.57348633 71.7668457 C27.86783035 72.03680862 27.16217438 72.30677155 26.43513489 72.58491516 C13.93551366 76.99944886 -5.2318553 77.91354068 -17.45703125 72.51171875 C-22.9735283 69.46025101 -26.18548736 66.25794082 -28.625 60.3125 C-28.90992869 57.56656959 -29.04653306 55.10752483 -29 52.375 C-29.01740234 51.35889648 -29.01740234 51.35889648 -29.03515625 50.32226562 C-29.00175088 44.51529897 -27.78649655 39.89268838 -24.01171875 35.38671875 C-13.59034119 26.88191637 -0.49724133 28.12564488 12.375 28.3125 C12.09372579 26.83132199 11.79966268 25.35256751 11.5 23.875 C11.33757812 23.05128906 11.17515625 22.22757813 11.0078125 21.37890625 C10.79898438 20.69699219 10.59015625 20.01507813 10.375 19.3125 C8.02001742 18.13500871 6.59670297 18.18339042 3.97265625 18.1796875 C3.08666748 18.17775391 2.20067871 18.17582031 1.2878418 18.17382812 C-0.12307739 18.1805957 -0.12307739 18.1805957 -1.5625 18.1875 C-2.5114917 18.18943359 -3.4604834 18.19136719 -4.43823242 18.19335938 C-10.88799094 18.23312838 -17.21591453 18.54723606 -23.625 19.3125 C-23.295 14.0325 -22.965 8.7525 -22.625 3.3125 C-14.61996453 0.64415484 -8.41501472 0.07004729 0 0 Z " fill="#FEFCFC" transform="translate(88.625,162.6875)"/>
<path d="M0 0 C1.60198242 -0.02416992 1.60198242 -0.02416992 3.23632812 -0.04882812 C11.18193199 -0.05368188 19.34780125 0.61109933 25.9375 5.5 C32.62726241 12.66760259 33.12622172 19.34894656 32.953125 28.90625 C32.94746521 30.09351685 32.94180542 31.28078369 32.93597412 32.50402832 C32.91369009 36.27393931 32.86350585 40.04287913 32.8125 43.8125 C32.79242482 46.37759038 32.77417584 48.94269575 32.7578125 51.5078125 C32.7138513 57.77636969 32.64701805 64.04436544 32.5625 70.3125 C17.223233 75.27181189 -2.48993919 79.21594736 -17.96484375 72.16015625 C-22.76779782 69.34999998 -25.90202889 66.33650006 -27.8515625 61.078125 C-29.57987619 52.92048436 -29.8618716 44.56269402 -25.4375 37.3125 C-19.46305335 30.39160636 -12.2707197 29.15984843 -3.50390625 28.46484375 C1.85140113 28.19878389 7.20250335 28.23580688 12.5625 28.3125 C12.28122579 26.83132199 11.98716268 25.35256751 11.6875 23.875 C11.52507812 23.05128906 11.36265625 22.22757813 11.1953125 21.37890625 C10.98648438 20.69699219 10.77765625 20.01507813 10.5625 19.3125 C8.20751742 18.13500871 6.78420297 18.18339042 4.16015625 18.1796875 C3.27416748 18.17775391 2.38817871 18.17582031 1.4753418 18.17382812 C0.06442261 18.1805957 0.06442261 18.1805957 -1.375 18.1875 C-2.3239917 18.18943359 -3.2729834 18.19136719 -4.25073242 18.19335938 C-10.70049094 18.23312838 -17.02841453 18.54723606 -23.4375 19.3125 C-22.7775 13.7025 -22.1175 8.0925 -21.4375 2.3125 C-14.19726172 0.4055747 -7.47101211 -0.02246245 0 0 Z " fill="#FEFBFC" transform="translate(309.4375,162.6875)"/>
<path d="M0 0 C1.68609375 -0.00483398 1.68609375 -0.00483398 3.40625 -0.00976562 C9.90900595 0.0320161 15.71375999 0.64105271 22 2.3125 C22.99302065 8.02236875 23.08504673 13.52597422 23 19.3125 C22.41154297 19.24248779 21.82308594 19.17247559 21.21679688 19.1003418 C14.62990076 18.37225545 8.12421313 18.12946376 1.5 18.125 C0.51257813 18.11275391 -0.47484375 18.10050781 -1.4921875 18.08789062 C-2.43320313 18.08595703 -3.37421875 18.08402344 -4.34375 18.08203125 C-5.19130859 18.07792236 -6.03886719 18.07381348 -6.91210938 18.06958008 C-9.22052585 18.11925895 -9.22052585 18.11925895 -11 20.3125 C-11.25005386 23.35432893 -11.25005386 23.35432893 -11 26.3125 C-9.36850723 27.94399277 -7.44012282 27.57429891 -5.1875 27.70703125 C-4.19363281 27.77599609 -3.19976562 27.84496094 -2.17578125 27.91601562 C-0.09045465 28.05324191 1.99551039 28.18114729 4.08203125 28.29882812 C11.64179083 28.84712904 18.19361539 30.16809532 24.15625 35.09375 C24.5996875 35.6609375 25.043125 36.228125 25.5 36.8125 C25.9640625 37.3796875 26.428125 37.946875 26.90625 38.53125 C30.40236906 44.22492961 29.51538109 51.92034287 29 58.3125 C27.46121922 63.70659567 24.38374927 67.82542672 20 71.3125 C6.10630383 78.18743455 -13.59308331 77.03327236 -28 72.3125 C-28.66 71.9825 -29.32 71.6525 -30 71.3125 C-30.31241455 68.59803021 -30.51336592 65.97340639 -30.625 63.25 C-30.68300781 62.11208008 -30.68300781 62.11208008 -30.7421875 60.95117188 C-30.83673562 59.07202805 -30.91946756 57.19229664 -31 55.3125 C-29.58297487 55.45480808 -28.1663904 55.60150746 -26.75 55.75 C-25.96109375 55.83121094 -25.1721875 55.91242188 -24.359375 55.99609375 C-22 56.3125 -22 56.3125 -20.15527344 56.82177734 C-16.00915481 57.76578487 -11.73374638 57.49712772 -7.5 57.5 C-6.07494141 57.51836914 -6.07494141 57.51836914 -4.62109375 57.53710938 C-3.24630859 57.54000977 -3.24630859 57.54000977 -1.84375 57.54296875 C-1.01037109 57.54707764 -0.17699219 57.55118652 0.68164062 57.55541992 C3.27731419 57.28344275 4.85524504 56.80308068 7 55.3125 C7.81870185 51.75043339 7.81870185 51.75043339 8 48.3125 C3.47226217 44.90989141 -0.37187098 44.84434617 -5.8125 44.75 C-14.3441009 44.55691264 -22.16570131 44.03423844 -29 38.3125 C-32.02982382 33.46767432 -32.54730277 29.49281129 -32.5 23.9375 C-32.49572998 23.18380127 -32.49145996 22.43010254 -32.48706055 21.65356445 C-32.30620875 15.76086321 -31.22700499 11.62146908 -27 7.3125 C-26.2575 6.549375 -25.515 5.78625 -24.75 5 C-16.87016534 0.16464691 -9.06345798 -0.12992342 0 0 Z " fill="#FEFBFC" transform="translate(243,162.6875)"/>
<path d="M0 0 C7.97720103 21.32416844 11.43758882 42.34307404 11.375 65.0625 C11.37445618 65.8166922 11.37391235 66.5708844 11.37335205 67.34793091 C11.21078255 116.78921745 11.21078255 116.78921745 -1 129 C-4.12569324 127.85605153 -7.2504332 126.70952129 -10.375 125.5625 C-11.70917969 125.07426758 -11.70917969 125.07426758 -13.0703125 124.57617188 C-13.92109375 124.26357422 -14.771875 123.95097656 -15.6484375 123.62890625 C-16.43395996 123.34088135 -17.21948242 123.05285645 -18.02880859 122.75610352 C-20 122 -20 122 -22 121 C-21.57899164 116.47416008 -20.5568592 112.50493804 -19.125 108.1875 C-14.63262064 93.88113111 -13.42012659 79.36524994 -13.5 64.4375 C-13.50043304 63.61971069 -13.50086609 62.80192139 -13.50131226 61.95935059 C-13.55116876 44.64967623 -16.16545296 28.62112931 -21.43823242 12.10253906 C-22 10 -22 10 -22 7 C-18.89878289 5.82538445 -15.79357759 4.66169544 -12.6875 3.5 C-11.80642578 3.16613281 -10.92535156 2.83226562 -10.01757812 2.48828125 C-9.17001953 2.17246094 -8.32246094 1.85664063 -7.44921875 1.53125 C-6.66893311 1.23798828 -5.88864746 0.94472656 -5.0847168 0.64257812 C-3 0 -3 0 0 0 Z " fill="#FEFBFC" transform="translate(378,136)"/>
<path d="M0 0 C7.39393019 2.15928935 14.70417741 4.5304518 22 7 C21.02437974 11.56811024 19.99525865 16.10986064 18.78125 20.62109375 C10.7213837 50.68808824 9.1082395 86.35882971 21.12109375 115.7421875 C22 118 22 118 22 121 C18.92064034 122.1773496 15.83592484 123.33997891 12.75 124.5 C11.87730469 124.83386719 11.00460938 125.16773438 10.10546875 125.51171875 C9.26113281 125.82753906 8.41679688 126.14335937 7.546875 126.46875 C6.38430176 126.90864258 6.38430176 126.90864258 5.19824219 127.35742188 C3 128 3 128 -1 128 C-10.95013959 95.19352826 -16.26688234 58.92460482 -8 25 C-7.80712402 24.17467773 -7.61424805 23.34935547 -7.41552734 22.49902344 C-3.68899243 6.74527976 -3.68899243 6.74527976 0 0 Z " fill="#FEFCFC" transform="translate(24,136)"/>
<path d="M0 0 C0.75603516 -0.03738281 1.51207031 -0.07476562 2.29101562 -0.11328125 C6.2663911 -0.17534262 9.01285639 0.07521164 12.23828125 2.5234375 C17.20533914 8.02564123 17.17638753 13.68246796 17.1875 20.75 C17.21199219 21.56210938 17.23648438 22.37421875 17.26171875 23.2109375 C17.28951458 28.99247005 16.23153819 33.61726018 12.8125 38.375 C6.99069942 42.25620039 0.63702016 41.89382317 -6.1875 41.375 C-7.1775 41.045 -8.1675 40.715 -9.1875 40.375 C-9.21214775 34.83911467 -9.23033496 29.303261 -9.24243164 23.76733398 C-9.24747244 21.8825627 -9.25430498 19.99779535 -9.26293945 18.11303711 C-9.27501617 15.40998364 -9.28073068 12.70698169 -9.28515625 10.00390625 C-9.29031754 9.15599014 -9.29547882 8.30807404 -9.30079651 7.4344635 C-9.30099195 5.41428932 -9.24956211 3.39422066 -9.1875 1.375 C-7.09197518 -0.72052482 -2.87143017 0.05251161 0 0 Z " fill="#DC0238" transform="translate(163.1875,179.625)"/>
<path d="M0 0 C0 5.28 0 10.56 0 16 C-2.536875 16.0825 -5.07375 16.165 -7.6875 16.25 C-8.47729248 16.28641602 -9.26708496 16.32283203 -10.08081055 16.36035156 C-13.82431085 16.41904344 -15.67716493 16.19032499 -18.98828125 14.23828125 C-21.1281937 11.85736895 -21.64475393 11.06780377 -21.5 7.9375 C-21 4 -21 4 -19.8125 2.0625 C-14.08076899 -1.29748025 -6.33903029 -0.06403061 0 0 Z " fill="#DC053B" transform="translate(101,205)"/>
<path d="M0 0 C0 5.28 0 10.56 0 16 C-2.536875 16.103125 -5.07375 16.20625 -7.6875 16.3125 C-8.47729248 16.35802002 -9.26708496 16.40354004 -10.08081055 16.45043945 C-14.15508844 16.53028685 -15.62660075 16.28651681 -18.98828125 13.70703125 C-21 11 -21 11 -21.5 7.375 C-20.96863716 3.78830085 -20.74878006 3.12066516 -18 1 C-16.0546875 0.48828125 -16.0546875 0.48828125 -13.875 0.3125 C-13.08996094 0.24804688 -12.30492187 0.18359375 -11.49609375 0.1171875 C-7.65658708 -0.06307103 -3.84336581 -0.06100581 0 0 Z " fill="#DC043A" transform="translate(322,205)"/>
</svg>
